<svg width="180" height="65" viewBox="0 0 180 65" fill="none" xmlns="http://www.w3.org/2000/svg">
<path d="M0 10C0 4.47715 4.47715 0 10 0H170C175.523 0 180 4.47715 180 10V55C180 60.5228 175.523 65 170 65H10C4.47716 65 0 60.5228 0 55V10Z" fill="black"/>
<g clip-path="url(#clip0_495_4399)">
<g clip-path="url(#clip1_495_4399)">
<path d="M71.4328 42.7492L65.547 25.41H61.276L68.1915 45.5904H70.7738L69.5161 49.0977H63.0296V52.6256H68.1264C71.196 52.6256 72.8302 50.9898 73.6794 48.5234L81.6332 25.41H77.3758L71.4328 42.7492Z" fill="white"/>
<path d="M103.555 18C102.034 18 100.774 19.2718 100.774 20.8049C100.774 22.3752 102.035 23.647 103.555 23.647C105.113 23.647 106.374 22.3752 106.374 20.8049C106.374 19.2718 105.113 18 103.555 18Z" fill="white"/>
<path d="M105.624 25.4091H101.481V45.5884H105.624V25.4091Z" fill="white"/>
<path d="M162.568 28.9496V25.4031H157.347V18.361H153.203V25.4031H149.887V28.9496H153.203V39.9922C153.203 43.2559 155.547 45.5912 158.745 45.5912H162.568V42.0545H157.347V28.9496H162.568Z" fill="white"/>
<path d="M87.5394 18.361H83.2859V45.5883H99.3421V41.7072H87.5394V18.361Z" fill="white"/>
<path d="M141.283 25.0323C137.875 25.0323 135.578 26.6779 134.737 29.1541V18.361H130.557V45.5893H134.737V35.39C134.737 31.2252 136.649 28.6346 140.236 28.6346C143.16 28.6346 144.564 30.3486 144.564 33.5498V45.5893H148.743V33.2886C148.743 28.1473 146.043 25.0323 141.283 25.0323Z" fill="white"/>
<path d="M52.2731 25.0323C46.364 25.0323 42.4055 28.8821 42.4055 35.5271C42.4055 42.1974 46.4368 45.9464 52.44 45.9464C58.6917 45.9464 61.0761 41.8706 61.5701 38.8534H57.401C57.0477 40.7358 55.9851 42.4293 52.5924 42.4293C48.794 42.4293 46.8026 40.2838 46.6745 36.8067H61.5846V34.8745C61.5846 29.2725 58.4287 25.0323 52.2731 25.0323ZM46.6784 33.497C46.7881 31.0795 48.1904 28.5612 52.1052 28.5612C56.02 28.5612 57.4379 31.0795 57.5475 33.497H46.6784Z" fill="white"/>
<path d="M35.721 29.7714H21.2904V18.361H17V45.5883H21.2904V33.6701H35.721V45.5883H40.0114V18.361H35.721V29.7714Z" fill="white"/>
<path d="M123.704 28.8205C122.413 26.4549 120.059 25.0323 116.935 25.0323C112.371 25.0323 107.837 28.0408 107.837 34.8765C107.837 41.7278 112.371 44.702 116.96 44.702C120.136 44.702 122.569 43.2775 123.461 40.8062V43.8665C123.461 47.459 121.973 49.4196 117.817 49.4196C114.411 49.4196 112.943 48.1135 112.61 45.5933H107.964C108.405 50.214 111.773 53.0003 117.692 53.0003C124.234 53.0003 127.64 49.5947 127.64 43.6434V25.409H124.469L123.704 28.8205ZM117.776 41.1418C114.727 41.1418 111.991 39.416 111.991 34.895C111.991 30.3859 114.727 28.6376 117.776 28.6376C120.824 28.6376 123.572 30.3497 123.572 34.8579C123.572 39.3788 120.825 41.1418 117.776 41.1418Z" fill="white"/>
</g>
</g>
<defs>
<clipPath id="clip0_495_4399">
<rect width="145.568" height="35" fill="white" transform="translate(17 18)"/>
</clipPath>
<clipPath id="clip1_495_4399">
<rect width="145.568" height="35.0003" fill="white" transform="translate(17 18)"/>
</clipPath>
</defs>
</svg>
