<?xml version="1.0" encoding="UTF-8" standalone="no"?>
<!-- Created with Inkscape (http://www.inkscape.org/) -->

<svg
   width="100mm"
   height="100mm"
   viewBox="0 0 100 100"
   version="1.1"
   id="svg235"
   inkscape:version="1.1 (c4e8f9e, 2021-05-24)"
   sodipodi:docname="hp-logo.svg"
   xmlns:inkscape="http://www.inkscape.org/namespaces/inkscape"
   xmlns:sodipodi="http://sodipodi.sourceforge.net/DTD/sodipodi-0.dtd"
   xmlns="http://www.w3.org/2000/svg"
   xmlns:svg="http://www.w3.org/2000/svg">
  <sodipodi:namedview
     id="namedview237"
     pagecolor="#ffffff"
     bordercolor="#666666"
     borderopacity="1.0"
     inkscape:pageshadow="2"
     inkscape:pageopacity="0.0"
     inkscape:pagecheckerboard="0"
     inkscape:document-units="mm"
     showgrid="false"
     width="100mm"
     inkscape:zoom="0.70377385"
     inkscape:cx="542.07754"
     inkscape:cy="561.25984"
     inkscape:window-width="1312"
     inkscape:window-height="970"
     inkscape:window-x="0"
     inkscape:window-y="25"
     inkscape:window-maximized="0"
     inkscape:current-layer="layer1" />
  <defs
     id="defs232" />
  <g
     inkscape:label="Layer 1"
     inkscape:groupmode="layer"
     id="layer1">
    <path
       style="fill:#000000;stroke-width:1.97061"
       d="m 13.619288,82.318419 c 1.293652,0.47575 2.508929,0.970722 3.724133,1.386799 11.172472,3.784102 18.267895,-1.703793 21.85487,-10.500263 a 92.123601,93.115647 0 0 0 3.332103,-10.539896 10.349204,10.460652 0 0 1 12.505336,-7.667213 4.2533662,4.2991691 0 0 1 3.684945,3.506742 58.802297,59.435519 0 0 1 0.529187,6.518068 c 0.09797,1.763242 0,3.5463 0.176644,5.269984 a 5.6450206,5.7058097 0 0 0 8.781181,4.378382 14.249757,14.403207 0 0 0 4.370959,-4.715191 c 2.763727,-4.517099 3.410554,-9.74745 3.920148,-14.918352 0.509891,-5.170902 0.784059,-10.658752 1.332841,-15.988144 a 21.560843,21.793024 0 0 1 1.430887,-5.408627 7.9579107,8.0436072 0 0 1 13.485313,-2.674596 19.600766,19.811841 0 0 1 4.704207,10.698393 48.335487,48.855995 0 0 1 -34.791402,55.849552 c -18.54231,4.952993 -34.634599,0 -48.100318,-13.868289 -0.293912,-0.296879 -0.548485,-0.633838 -0.823174,-0.970796 -0.274613,-0.336959 -0.05938,-0.138792 -0.118009,-0.356256 z"
       id="path48" />
    <path
       style="fill:#000000;stroke-width:1.97061"
       d="m 53.330453,1.3672236 c 2.489337,0.4358935 5.017786,0.7329959 7.487528,1.3075768 a 47.767067,48.281454 0 0 1 24.638118,14.4626416 3.2145257,3.2491418 0 0 1 0.784059,1.307584 l -1.23487,-0.515087 A 21.149226,21.376974 0 0 0 73.53883,15.948758 15.680612,15.849472 0 0 0 62.209605,24.428228 50.961991,51.510784 0 0 0 57.427021,37.840843 10.192398,10.302156 0 0 1 45.666557,45.765578 4.7041838,4.7548416 0 0 1 41.079989,41.426785 52.275242,52.838175 0 0 1 40.766038,35.027559 c 0,-1.446264 0,-2.912337 -0.117267,-4.338793 a 5.8802297,5.9435519 0 0 0 -9.624023,-4.299174 15.680612,15.849472 0 0 0 -3.861365,4.754848 34.183736,34.551847 0 0 0 -3.704538,14.185274 c -0.548485,5.309566 -0.764392,10.658745 -1.313247,15.98818 a 23.873732,24.130821 0 0 1 -1.47,5.725621 A 7.9971121,8.0832302 0 0 1 6.9550062,69.500195 21.952858,22.189259 0 0 1 2.2312801,57.097972 48.453092,48.974869 0 0 1 36.238549,3.4871077 87.341011,88.281555 0 0 1 45.254933,1.6644224 l 1.391623,-0.2971765 z"
       id="path2" />
  </g>
</svg>
