<?xml version="1.0" encoding="UTF-8" standalone="no"?>
<!-- Created with Inkscape (http://www.inkscape.org/) -->

<svg
   width="130"
   height="30"
   viewBox="0 0 34.395833 7.9374995"
   version="1.1"
   id="svg278"
   inkscape:version="1.1.1 (c3084ef, 2021-09-22)"
   sodipodi:docname="pagolight_logo_30.svg"
   xmlns:inkscape="http://www.inkscape.org/namespaces/inkscape"
   xmlns:sodipodi="http://sodipodi.sourceforge.net/DTD/sodipodi-0.dtd"
   xmlns="http://www.w3.org/2000/svg"
   xmlns:svg="http://www.w3.org/2000/svg">
  <sodipodi:namedview
     id="namedview280"
     pagecolor="#ffffff"
     bordercolor="#666666"
     borderopacity="1.0"
     inkscape:pageshadow="2"
     inkscape:pageopacity="0.10980392"
     inkscape:pagecheckerboard="true"
     inkscape:document-units="px"
     showgrid="false"
     units="px"
     inkscape:zoom="5.7181163"
     inkscape:cx="89.277653"
     inkscape:cy="14.865035"
     inkscape:window-width="1312"
     inkscape:window-height="942"
     inkscape:window-x="0"
     inkscape:window-y="25"
     inkscape:window-maximized="0"
     inkscape:current-layer="g89" />
  <defs
     id="defs275" />
  <g
     inkscape:label="Layer 1"
     inkscape:groupmode="layer"
     id="layer1">
    <g
       id="g89"
       transform="matrix(0.34090908,0,0,0.34090908,-24.44383,-26.357697)">
      <path
         style="fill:#e20512;stroke-width:0.0846667"
         d="m 113.31511,96.985074 c -0.7276,-0.285277 -1.19816,-0.72235 -1.51505,-1.407227 -0.17612,-0.380623 -0.17828,-0.460359 -0.17828,-6.565968 0,-5.859551 0.008,-6.202237 0.16014,-6.595838 0.19581,-0.507681 0.62831,-1.000195 1.14511,-1.304014 l 0.38808,-0.228148 h 6.43467 6.43467 l 0.38808,0.228148 c 0.5168,0.303819 0.9493,0.796333 1.14511,1.304014 0.15182,0.393601 0.16014,0.736287 0.16014,6.595838 v 6.180666 l -0.23759,0.483823 c -0.13253,0.269894 -0.40602,0.632087 -0.61853,0.819142 -0.71056,0.625459 -0.43255,0.602802 -7.30813,0.595594 -4.49611,-0.0047 -6.21256,-0.03316 -6.39842,-0.10603 z m 7.72941,-1.966961 c 0.82907,-0.167823 2.03206,-0.748404 2.66112,-1.284303 0.98959,-0.843027 1.7357,-2.014792 2.06323,-3.240265 0.22446,-0.839825 0.20737,-2.313267 -0.0368,-3.171184 -0.62118,-2.182868 -2.28412,-3.808079 -4.46799,-4.366618 -0.87934,-0.224897 -2.14935,-0.224897 -3.02868,0 -3.13592,0.802033 -5.13737,3.859286 -4.59013,7.011532 0.25122,1.447153 0.81537,2.483519 1.91502,3.517987 1.47963,1.391936 3.45405,1.943793 5.48419,1.532851 z m -2.14895,-2.025535 c -1.91295,-0.416222 -3.25212,-2.070188 -3.25212,-4.016583 0,-1.157734 0.39625,-2.112114 1.21744,-2.932226 1.62644,-1.624304 4.1546,-1.614224 5.8264,0.02323 1.33794,1.310446 1.55608,3.531141 0.50642,5.155182 -0.58396,0.903488 -1.52861,1.540951 -2.62927,1.774251 -0.67792,0.143694 -0.9941,0.142964 -1.66887,-0.0039 z"
         id="path93-2" />
      <g
         id="g1162"
         transform="translate(27.234585,23.149766)">
        <path
           style="fill:#010101;stroke-width:0.0846667"
           d="m 68.616591,72.006547 c -0.144373,-0.06285 -0.296773,-0.185183 -0.338667,-0.271853 -0.04189,-0.08667 -0.09522,-2.076352 -0.118504,-4.421514 l -0.04233,-4.263933 -3.852333,4.175416 c -2.118783,2.296479 -3.989309,4.320024 -4.156724,4.496766 -0.29751,0.314086 -0.318172,0.32135 -0.914015,0.32135 -0.534367,0 -0.63528,-0.02566 -0.817442,-0.207818 -0.295565,-0.295564 -0.285069,-0.786337 0.02484,-1.161519 0.55672,-0.673976 9.942008,-10.908001 10.113569,-11.028168 0.115436,-0.08085 0.368194,-0.133161 0.643456,-0.133161 0.388172,0 0.488918,0.03558 0.700828,0.247487 l 0.247487,0.247487 v 5.725717 c 0,6.305296 0.01567,6.114736 -0.518062,6.300796 -0.350936,0.122337 -0.647917,0.114073 -0.9721,-0.02705 z m 7.541266,0.03266 c -2.131,-0.278656 -3.95664,-1.773055 -4.751604,-3.889485 -0.663161,-1.765534 -0.564191,-3.60918 0.286424,-5.335613 0.330945,-0.671697 0.522566,-0.931553 1.162019,-1.575809 0.631464,-0.636208 0.891907,-0.83243 1.485391,-1.119117 2.68818,-1.298549 5.89046,-0.43074 7.50468,2.03375 0.86794,1.325117 0.92576,2.02153 0.19905,2.397326 -0.3161,0.163463 -0.84216,0.161928 -1.07784,-0.0031 -0.10181,-0.07131 -0.30694,-0.385638 -0.45583,-0.698499 -0.32876,-0.690821 -1.18609,-1.586034 -1.83271,-1.913701 -0.77702,-0.393746 -1.3743,-0.503429 -2.16323,-0.397254 -1.25697,0.169162 -2.0882,0.700024 -2.820209,1.801129 -0.51685,0.777452 -0.722258,1.441512 -0.728141,2.353987 -0.0084,1.305753 0.356982,2.250217 1.23486,3.191791 1.14026,1.223002 2.87153,1.533387 4.42781,0.793825 0.47767,-0.226998 1.38423,-0.9571 1.38423,-1.114799 0,-0.04225 -0.36318,-0.07682 -0.80706,-0.07682 -0.96301,0 -1.3183,-0.120178 -1.47521,-0.498989 -0.16915,-0.408352 -0.0697,-1.019369 0.20433,-1.25505 0.22015,-0.189366 0.26496,-0.193294 2.20494,-0.193294 1.94645,0 1.9841,0.0033 2.20748,0.195482 0.89314,0.768246 -0.5218,3.38992 -2.44783,4.535452 -0.65621,0.390292 -1.4254,0.65722 -2.20723,0.765963 -0.719,0.100003 -0.79046,0.100137 -1.53432,0.0029 z M 51.518571,71.834961 51.310753,71.627143 V 65.75372 59.880296 l 0.218304,-0.205258 c 0.215846,-0.202947 0.239829,-0.205549 2.129083,-0.23102 2.050568,-0.02765 2.828965,0.04711 3.527128,0.338759 0.640825,0.267691 1.523706,0.871437 1.900789,1.299826 0.422709,0.480223 0.903624,1.393668 1.069959,2.032271 0.164434,0.631303 0.164078,1.785189 -7.62e-4,2.484509 -0.485946,2.061533 -2.492275,3.739966 -4.460326,3.73137 -0.857276,-0.0037 -1.082175,-0.214529 -1.082175,-1.014254 0,-0.582914 0.277329,-0.879481 0.890321,-0.95208 1.090517,-0.129155 1.984912,-0.732178 2.502891,-1.687507 0.265292,-0.489287 0.289788,-0.5953 0.289788,-1.254133 0,-0.617288 -0.03382,-0.788533 -0.237718,-1.203755 -0.28421,-0.578766 -0.805534,-1.136102 -1.376719,-1.47182 -0.411967,-0.242135 -0.437704,-0.2458 -1.920396,-0.273448 l -1.502834,-0.02802 v 5.090705 5.090705 l -0.207818,0.207818 c -0.178605,0.178605 -0.286261,0.207818 -0.765848,0.207818 -0.479588,0 -0.587244,-0.02921 -0.765849,-0.207818 z m 50.676849,-5.972849 v -6.180666 h 0.381 0.381 v 5.842 5.842 h 2.62467 2.62467 v 0.338666 0.338667 h -3.00567 -3.00567 z m 6.858,-0.04233 v -6.223 h 0.33867 0.33867 v 6.223 6.223 h -0.33867 -0.33867 z m 7.40834,6.101952 c -1.24617,-0.246527 -2.19121,-0.743898 -3.05473,-1.6077 -0.7007,-0.700925 -1.20476,-1.515077 -1.52442,-2.462252 -0.18514,-0.548569 -0.23589,-0.878527 -0.26695,-1.735667 -0.0467,-1.289179 0.0827,-1.987489 0.55262,-2.982645 1.06388,-2.252809 2.90836,-3.452021 5.30948,-3.452021 2.09152,0 3.82049,0.905348 4.94783,2.590856 0.66597,0.99571 0.76653,1.557811 0.27869,1.557811 -0.20228,0 -0.27023,-0.06289 -0.43449,-0.402167 -0.66283,-1.369066 -1.79786,-2.367742 -3.24063,-2.851326 -0.77147,-0.258579 -2.00808,-0.299128 -2.80357,-0.09193 -1.13964,0.296838 -2.18523,1.028767 -2.89007,2.023081 -0.7923,1.117699 -1.06146,1.947148 -1.06351,3.277297 -0.002,1.619723 0.51419,2.880258 1.64766,4.019717 1.0416,1.047101 2.08373,1.480819 3.55809,1.480819 1.80703,0 3.39044,-0.851423 4.39337,-2.362388 0.6298,-0.948813 0.69282,-0.898329 -1.15487,-0.92514 l -1.5875,-0.02303 v -0.294466 -0.294465 h 1.98966 1.98967 v 0.372304 c 0,0.262088 -0.0913,0.549776 -0.30839,0.971805 -0.98613,1.917047 -2.88655,3.169489 -4.96276,3.270635 -0.48157,0.02346 -1.01045,-0.007 -1.37518,-0.07913 z m 8.33966,-6.101952 v -6.223 h 0.33867 0.33867 v 6.223 6.223 h -0.33867 -0.33867 z m 7.19667,0 v -6.223 h 0.33867 0.33866 v 6.223 6.223 h -0.33866 -0.33867 z m 5.24933,0.338667 v -5.884333 h -1.651 -1.651 v -0.296334 -0.296333 h 3.64067 3.64067 v 0.296333 0.296334 h -1.651 -1.651 v 5.884333 5.884333 h -0.33867 -0.33867 z m -11.43,1.862666 v -0.296333 h 2.96334 2.96333 v 0.296333 0.296334 h -2.96333 -2.96334 z"
           id="path91-6" />
      </g>
    </g>
  </g>
</svg>
